<?xml version="1.0" encoding="UTF-8" standalone="no"?>
<!-- Created with Inkscape (http://www.inkscape.org/) -->

<svg
   width="4.2333331mm"
   height="4.2333331mm"
   viewBox="0 0 4.2333331 4.2333331"
   version="1.1"
   id="svg1"
   xml:space="preserve"
   inkscape:version="1.3-dev (ec1fbf2c8, 2023-01-09)"
   sodipodi:docname="favicon.svg"
   xmlns:inkscape="http://www.inkscape.org/namespaces/inkscape"
   xmlns:sodipodi="http://sodipodi.sourceforge.net/DTD/sodipodi-0.dtd"
   xmlns="http://www.w3.org/2000/svg"
   xmlns:svg="http://www.w3.org/2000/svg"><sodipodi:namedview
     id="namedview1"
     pagecolor="#ffffff"
     bordercolor="#000000"
     borderopacity="0.25"
     inkscape:showpageshadow="2"
     inkscape:pageopacity="0.0"
     inkscape:pagecheckerboard="0"
     inkscape:deskcolor="#d1d1d1"
     inkscape:document-units="mm"
     inkscape:zoom="29.676094"
     inkscape:cx="3.6224444"
     inkscape:cy="8.2389548"
     inkscape:window-width="3440"
     inkscape:window-height="1377"
     inkscape:window-x="-8"
     inkscape:window-y="-8"
     inkscape:window-maximized="1"
     inkscape:current-layer="svg1"><inkscape:page
       x="0"
       y="0"
       width="4.2333331"
       height="4.2333331"
       id="page1"
       margin="0"
       bleed="0" /><inkscape:page
       x="14.233334"
       y="0"
       width="132.29167"
       height="132.29167"
       id="page2"
       margin="0"
       bleed="0" /></sodipodi:namedview><defs
     id="defs1"><clipPath
       id="f1f44d27c3"><path
         d="M 71 299 L 280 299 L 280 372.355469 L 71 372.355469 Z M 71 299 "
         clip-rule="nonzero"
         id="path1" /></clipPath></defs><g
     inkscape:label="Calque 1"
     inkscape:groupmode="layer"
     id="layer1" /><path
     fill="#eff3fa"
     d="m 3.0703635,3.261822 c -0.016022,0 -0.032619,-4.002e-4 -0.049215,-0.0012 l -0.027839,-0.00133 -0.0039,-0.3161854 0.034035,0.00471 c 0,0 0.010173,0.00133 0.026776,0.00133 0.086481,0 0.2910462,-0.033507 0.3249044,-0.3430945 0.0066,-0.2922446 -0.0042,-0.7576705 -0.060898,-0.8458336 l -0.00231,-0.00357 -0.00124,-0.00411 C 3.3104198,1.7516323 3.2773023,1.6467164 3.2020616,1.6467164 c -0.049127,0 -0.1111779,0.042799 -0.179381,0.1236604 l -0.00656,0.00774 -0.093254,0.020093 -0.033239,-0.461309 0.02151,-0.00756 c 0.00456,-0.00163 0.1131703,-0.039435 0.2463005,-0.039435 0.1655723,0 0.4482536,0.063778 0.4810495,0.4908758 0.00243,0.027702 0.060678,0.6891975 0.041161,0.9156266 -1.58e-5,0.022481 -0.00498,0.2397945 -0.1603777,0.3998777 C 3.4126589,3.2060937 3.2616033,3.261771 3.0703606,3.261771 Z m 0,0"
     fill-opacity="1"
     fill-rule="nonzero"
     id="path2"
     style="stroke-width:0.0113303" /><path
     fill="#000000"
     d="m 3.157421,1.3201429 c 0.1872589,0 0.4220078,0.078649 0.4515284,0.4629927 0,0 0.0609,0.6869417 0.041072,0.9119525 0,0 0.00456,0.5364616 -0.5797023,0.5364616 -0.015535,0 -0.031468,-4.001e-4 -0.047799,-0.00121 l -0.00309,-0.2526284 c 0,0 0.011601,0.00163 0.03076,0.00163 0.0848,0 0.3179556,-0.031379 0.3545131,-0.3713315 0,0 0.01673,-0.7362011 -0.065724,-0.8644187 0,0 -0.038329,-0.1271557 -0.1369365,-0.1271557 -0.0505,0 -0.1167555,0.033327 -0.2018204,0.1341477 l -0.050323,0.01084 -0.029078,-0.4035961 c 0,0 0.1069291,-0.037753 0.2366081,-0.037753 m 3.2e-5,-0.060502 V 1.320093 1.259592 c -0.1380883,0 -0.2512572,0.039389 -0.2560374,0.041117 l -0.043064,0.01518 0.00336,0.046427 0.029123,0.4035532 0.00495,0.069043 0.066299,-0.014296 0.050323,-0.010799 0.019607,-0.00423 0.013052,-0.015493 c 0.083031,-0.098475 0.1339722,-0.1131261 0.156942,-0.1131261 0.052402,0 0.080109,0.083915 0.080374,0.084756 l 0.00252,0.00819 0.00452,0.00691 c 0.00996,0.015444 0.043241,0.093517 0.054085,0.4490058 0.00563,0.1833648 0.00247,0.3551321 0.00199,0.3782353 -0.030449,0.2738743 -0.1979701,0.3148132 -0.2953394,0.3148132 -0.014296,0 -0.023015,-0.00109 -0.023148,-0.00109 l -0.068026,-0.00943 0.00115,0.070194 0.00309,0.2526301 7.073e-4,0.057002 0.055766,0.00266 c 0.017039,7.857e-4 0.034035,0.00121 0.050543,0.00121 0.1994303,0 0.357523,-0.058732 0.4699404,-0.1745115 C 3.7006818,2.9522894 3.7088699,2.7289595 3.709224,2.6978899 3.7285208,2.4684524 3.6708518,1.8110753 3.6679304,1.778058 3.6331873,1.3269728 3.3332005,1.2596556 3.1574485,1.2596556 Z m 0,0"
     fill-opacity="1"
     fill-rule="nonzero"
     id="path3"
     style="stroke-width:0.0113303" /><path
     fill="#eff3fa"
     d="m 1.9257416,3.7476085 c -0.2249678,0 -0.7709003,-0.027618 -0.98144019,-0.2832579 -0.00448,-0.00544 -0.00694,-0.012389 -0.00694,-0.019518 l 0.00418,-1.9729274 c 4.48e-5,-0.015092 0.010923,-0.027884 0.025582,-0.029919 L 2.9224639,1.168156 c 0.00138,-1.335e-4 0.0027,-2.667e-4 0.00402,-2.667e-4 0.00686,0 0.013592,0.00248 0.018942,0.007 0.00642,0.00544 0.010269,0.013411 0.010663,0.021864 l 0.098786,2.1908566 c 3.202e-4,0.00704 -0.00181,0.01403 -0.00597,0.019652 -0.071788,0.096527 -0.3167608,0.3227799 -1.0390649,0.3387561 2.267e-4,3.34e-5 -0.031557,0.00158 -0.084092,0.00158 z m 0,0"
     fill-opacity="1"
     fill-rule="nonzero"
     id="path4"
     style="stroke-width:0.0113303" /><path
     fill="#000000"
     d="m 2.9264781,1.1982105 0.09883,2.1908566 c -0.065458,0.087987 -0.3011815,0.3109623 -1.0161386,0.3267633 -0.00155,9.61e-5 -0.032619,0.00158 -0.083472,0.00158 -0.2093887,0 -0.7547462,-0.024741 -0.95873509,-0.2724583 L 0.97114241,1.47202 2.9264977,1.1981904 m 0,-0.060457 c -0.0027,0 -0.00535,1.334e-4 -0.00806,5.337e-4 L 0.96308221,1.4120945 c -0.0293,0.00412 -0.05112,0.029654 -0.051205,0.059838 l -0.00411,1.9728821 c -4.47e-5,0.014297 0.00489,0.02815 0.013897,0.039079 0.096927,0.1176834 0.26896059,0.2016865 0.51141069,0.2495752 0.1956685,0.03868 0.3926646,0.044436 0.4926452,0.044436 0.04833,0 0.079578,-0.00133 0.085419,-0.00158 0.734741,-0.016371 0.9869279,-0.2506773 1.061327,-0.350658 0.0084,-0.011282 0.01261,-0.025224 0.011988,-0.039346 L 2.9856496,1.1954693 C 2.9849,1.1784739 2.9771508,1.1626302 2.9644059,1.1517866 2.9536902,1.14268 2.9402405,1.1377557 2.9264761,1.1377557 Z m 0,0"
     fill-opacity="1"
     fill-rule="nonzero"
     id="path5"
     style="stroke-width:0.0113303" /><path
     fill="#eff3fa"
     d="m 1.9822601,4.1824065 c -0.2215155,0 -0.7704576,-0.022263 -1.08305809,-0.2285079 -0.00224,-0.00145 -0.00435,-0.00326 -0.00611,-0.00532 -0.00877,-0.01013 -0.082631,-0.1086561 0.021199,-0.4552022 0.00374,-0.012389 0.01478,-0.021023 0.027529,-0.021374 0,0 0.00895,-2.672e-4 0.00921,-2.672e-4 0.00797,0 0.015625,0.00326 0.021199,0.00907 0.036825,0.038596 0.083871,0.073469 0.13981339,0.1036974 0.2562587,0.1385302 0.6464449,0.1534898 0.8023245,0.1534898 0.055501,0 0.091172,-0.00181 0.095068,-0.00199 0.661404,-0.014649 0.9183265,-0.2004013 1.0127307,-0.3098529 0.00563,-0.00659 0.013771,-0.010269 0.022217,-0.010269 0.00128,0 0.00261,9.74e-5 0.0039,2.666e-4 0.00978,0.00133 0.018278,0.00756 0.02266,0.016599 0.015447,0.031869 0.1472934,0.3156543 0.02328,0.4643203 -6.65e-4,7.858e-4 -0.00138,0.00158 -0.00207,0.00224 -0.010799,0.010535 -0.2728998,0.2577634 -1.0327358,0.2819726 -9.309e-4,3.21e-5 -0.02899,0.00121 -0.077143,0.00121 z m 0,0"
     fill-opacity="1"
     fill-rule="nonzero"
     id="path6"
     style="stroke-width:0.0113303" /><g
     clip-path="url(#f1f44d27c3)"
     id="g7"
     transform="matrix(0.01133026,0,0,0.01133026,0.01433493,-0.00585165)"><path
       fill="#000000"
       d="m 267.42578,304.66797 c 1.14063,2.35547 12.30078,26.19922 2.40625,38.0625 0,0 -22.58984,22.01953 -89.42187,24.15234 0,0 -2.48047,0.0977 -6.72657,0.0977 -17.84765,0 -66.8789,-1.73047 -94.171871,-19.74219 0,0 -6.585938,-7.58203 2.414062,-37.62109 l 0.742188,-0.0195 c 3.613281,3.78515 8.039062,6.96875 12.984375,9.64453 22.734376,12.28906 56.367186,13.85547 72.039066,13.85547 4.82421,0 7.94921,-0.14844 8.52343,-0.17969 59.66016,-1.31641 82.84375,-18.55078 91.21094,-28.25 m -0.004,-5.33985 c -1.48828,0 -2.92187,0.65235 -3.92187,1.8125 -3.67578,4.26563 -10.88281,10.47266 -24.33984,15.82422 -16.30469,6.48047 -37.51954,10.05469 -63.0586,10.61719 -0.0508,0 -0.10156,0.004 -0.15625,0.004 -0.33594,0.0195 -3.42187,0.17578 -8.2539,0.17578 -13.5625,0 -47.49219,-1.29297 -69.589848,-13.23828 -4.695312,-2.53907 -8.628906,-5.44922 -11.695312,-8.65625 -0.984375,-1.02735 -2.332031,-1.60938 -3.738281,-1.60938 -0.04687,0 -0.09766,0 -0.144531,0.004 l -0.742188,0.0195 c -2.242188,0.0625 -4.199219,1.58203 -4.855469,3.77344 -9.144531,30.52734 -3.328125,40.42187 -1.328125,42.72656 0.316406,0.36328 0.679688,0.67969 1.078125,0.94531 28.171879,18.58594 77.226559,20.59375 97.007809,20.59375 4.30078,0 6.82422,-0.0976 6.92969,-0.10156 68.01172,-2.17188 91.84766,-24.66797 92.83203,-25.625 0.12891,-0.12891 0.25391,-0.26172 0.36719,-0.39844 11.78125,-14.125 0.65234,-39.04297 -1.69922,-43.89844 -0.77344,-1.59375 -2.27344,-2.6875 -4.00391,-2.92187 -0.22656,-0.0352 -0.45703,-0.0469 -0.68359,-0.0469 z m 0,0"
       fill-opacity="1"
       fill-rule="nonzero"
       id="path7" /></g><path
     fill="#398d3c"
     d="M 2.860444,3.1665339 C 2.8620435,3.2774023 2.7804684,3.3982727 2.6792039,3.435185 2.2733062,3.5830973 1.8477132,3.5988548 1.4301756,3.4972355 1.3804754,3.4851458 1.3305044,3.4728931 1.2818639,3.4567414 1.1795819,3.4227938 1.094605,3.304269 1.0930556,3.1934004 L 1.078935,2.205499 C 1.0773589,2.0946307 1.0747595,1.9131692 1.0732524,1.8022566 L 1.0591799,0.81439894 C 1.0576017,0.70348643 1.1441566,0.61142897 1.2515733,0.60983465 l 0.4931318,-0.007522 c 0.1074158,-0.001645 0.2832123,-0.004299 0.3905841,-0.005931 l 0.493132,-0.00748 c 0.1074158,-0.001632 0.1477362,0.0877658 0.1493295,0.19863275 l 0.053154,0.9879014 c 0.00155,0.1108682 0.013896,0.2923299 0.01549,0.4031984 z m 0,0"
     fill-opacity="1"
     fill-rule="nonzero"
     id="path8"
     style="stroke-width:0.0113303" /><path
     fill="#215923"
     d="m 2.7060691,2.7996714 c 0.00681,0.1105156 0.00642,0.2085479 -0.073734,0.228952 -0.084933,0.021639 -0.093828,-0.085332 -0.096174,-0.1964656 -0.0062,-0.2937015 -0.00372,-0.5883325 -0.00416,-0.8822992 -1.745e-4,-0.098078 -4.012e-4,-0.2585603 -5.748e-4,-0.3566387 l -0.00138,-0.87380188 c -1.317e-4,-0.0980332 0.00822,-0.17946938 0.018632,-0.18093028 l 0.047799,-0.006637 c 0.010397,-0.001411 0.027395,-0.003761 0.037841,-0.005226 l 0.047755,-0.006595 c 0.010397,-0.001451 0.014295,0.0776297 0.014472,0.17566436 l 0.00513,0.8738022 c 1.735e-4,0.098078 0.00138,0.2585603 0.0015,0.3566374 2.67e-4,0.1787164 -1.317e-4,0.3574787 5.337e-4,0.5361957 4.002e-4,0.1116646 -0.00469,0.2246138 0.00221,0.3356153 4.49e-5,5.338e-4 8.98e-5,0.00121 1.316e-4,0.00168 z m 0,0"
     fill-opacity="1"
     fill-rule="nonzero"
     id="path9"
     style="stroke-width:0.0113303" /><path
     fill="#ffffff"
     d="m 2.6852232,1.4019343 c 0,0 0.3073334,0.281618 0.4255486,-0.2413888 0,0 0.1891181,-0.080507 0.063025,-0.25754244 0,0 0.063025,-0.209211 -0.1182156,-0.18504594 0,0 0.023634,-0.27356388 -0.2364308,-0.22532195 0,0 -0.086658,-0.160969 -0.2521426,-0.0321754 0,0 0.034477,-0.15849145 -0.03939,-0.24435316 0,0 -0.2916213,-0.30286378 -0.6067886,0.0190307 0,0 -0.1654839,-0.12874991 -0.2994553,0.0482859 0,0 -0.1339279,-0.0965731 -0.260021,0.0643535 0,0 -0.1339721,-0.22532209 -0.2836989,0 0,0 -0.35460209,-0.0482872 -0.30733369,0.31383849 0,0 -0.2757768,0.1528709 -0.1339265,0.3540718 0,0 -0.17216692,0.1279522 -0.047312,0.2655525 0,0 -0.10511462,0.1547732 0.094582,0.2816192 0,0 0.031511,0.1689807 0.1576056,0.1207375 0,0 -0.039388,0.2574547 0.1260938,0.2977305 0,0 0.031512,0.5471717 0.36248019,0.4988861 0,0 0.2521424,0.00806 0.2994552,-0.3460165 0,0 0.2915772,-0.1770361 0.1497278,-0.4184677 0,0 0.2755997,0.091661 0.3701366,-0.1738485 0,0 0.1911097,0.1246325 0.2698903,-0.020183 -4.49e-5,0 0.2424944,0.1457453 0.2661719,-0.1197628 z m 0,0"
     fill-opacity="1"
     fill-rule="nonzero"
     id="path10"
     style="stroke-width:0.0113303" /><path
     fill="#000000"
     d="m 1.2893436,2.5134497 c -0.2845846,0 -0.34052729,-0.408774 -0.34999869,-0.5090642 -0.1264479,-0.046206 -0.1351668,-0.2046091 -0.1314046,-0.2822835 -0.00326,2.666e-4 -0.00656,4.002e-4 -0.00974,4.002e-4 -0.095068,0 -0.1308294,-0.1032122 -0.1406988,-0.1407437 -0.0682426,-0.045941 -0.10918264,-0.1006893 -0.12175225,-0.1628289 -0.011766,-0.058155 0.004895,-0.1075042 0.0174389,-0.1340591 -0.0297403,-0.039036 -0.0426643,-0.081038 -0.0384619,-0.1251192 0.006494,-0.068512 0.0538652,-0.1229068 0.0824538,-0.149949 -0.0290759,-0.0507206 -0.0378402,-0.10294569 -0.0260656,-0.15565793 0.023853,-0.10639816 0.12596114,-0.18168269 0.16747544,-0.20845983 -0.00957,-0.10015697 0.010312,-0.17964554 0.05913,-0.23660734 0.069886,-0.0814802 0.180222,-0.0936959 0.23975039,-0.0936959 0.010013,0 0.018721,4.0027e-4 0.025715,7.9792e-4 0.047312,-0.0655467 0.099227,-0.0987853 0.1544629,-0.0987853 0.066124,0 0.1176847,0.0485071 0.1457003,0.0824979 0.059662,-0.0615205 0.1194987,-0.0754617 0.161412,-0.0754617 0.037751,0 0.06922,0.0109781 0.089358,0.0205363 0.049217,-0.0558987 0.1087002,-0.0852866 0.1732733,-0.0852866 0.056164,0 0.103433,0.0218636 0.1295464,0.0371349 0.097281,-0.0929879 0.2021743,-0.14007921 0.3122018,-0.14007921 0.1843381,0 0.3140606,0.13255494 0.3195047,0.13817537 4.002e-4,4.0028e-4 7.495e-4,7.9791e-4 0.00115,0.001203 0.051163,0.0595267 0.05727,0.14618693 0.054085,0.20544888 0.029034,-0.014161 0.057581,-0.0213327 0.085419,-0.0213327 0.07524,0 0.1230838,0.0511632 0.1438412,0.0794906 0.083738,-0.0112823 0.148533,0.008461 0.1927915,0.0578455 0.047091,0.0525347 0.057626,0.12547306 0.05944,0.16818263 0.056695,6.6491e-4 0.086968,0.0260683 0.1024146,0.047401 0.038107,0.052756 0.025758,0.13091784 0.018057,0.16406815 0.037355,0.0570951 0.049172,0.11184166 0.035141,0.16282756 -0.0185,0.067407 -0.077319,0.1063995 -0.1047606,0.121314 -0.064396,0.2694042 -0.1832756,0.326498 -0.2724572,0.326498 -0.063423,0 -0.1206047,-0.028592 -0.1571188,-0.052314 -0.02753,0.1172423 -0.1063537,0.1362729 -0.1545519,0.1362729 -0.048241,0 -0.095288,-0.017969 -0.1230397,-0.03098 -0.030626,0.0401 -0.074179,0.061121 -0.1274212,0.061121 -0.053509,0 -0.1060445,-0.021377 -0.137867,-0.037399 -0.052357,0.1142765 -0.1499488,0.1766812 -0.2780783,0.1766812 -0.019917,0 -0.038328,-0.0015 -0.05435,-0.00363 0.018278,0.05152 0.021068,0.1037433 0.00819,0.1559234 C 1.8083183,2.0397565 1.6945296,2.126282 1.6565111,2.1521738 1.6040651,2.4980567 1.3622783,2.510272 1.3316959,2.5104491 c -0.014338,0.00199 -0.028592,0.00295 -0.042313,0.00295 z M 0.84113471,1.6533236 c 0.00673,0 0.01337,0.00235 0.018721,0.00681 0.00819,0.00677 0.012167,0.017482 0.010536,0.028105 -3.071e-4,0.00225 -0.033059,0.2303674 0.1036974,0.2636501 0.012707,0.00308 0.021955,0.014338 0.022705,0.027618 2.673e-4,0.00471 0.030763,0.473481 0.29255109,0.473481 0.011684,0 0.023853,-9.067e-4 0.036201,-0.00272 0.00168,-2.671e-4 0.00339,-4.001e-4 0.00508,-2.671e-4 0.023634,0 0.2276671,-0.00895 0.269182,-0.319859 0.00124,-0.00911 0.00646,-0.017173 0.014207,-0.021907 0.00133,-7.858e-4 0.1375117,-0.085199 0.1680951,-0.2096535 0.013592,-0.055455 0.00398,-0.1117104 -0.028636,-0.1672101 -0.00633,-0.010841 -0.00545,-0.024564 0.00225,-0.034434 0.0077,-0.00987 0.02058,-0.013812 0.032309,-0.00987 3.602e-4,9.08e-5 0.042754,0.013757 0.097635,0.013757 0.1163117,0 0.1955356,-0.056961 0.2355453,-0.169246 0.00306,-0.00863 0.00978,-0.015401 0.018323,-0.018323 0.0085,-0.00295 0.01788,-0.00181 0.025449,0.00316 6.65e-4,4.001e-4 0.070371,0.045145 0.1366268,0.045145 0.04156,0 0.071434,-0.017838 0.091395,-0.054483 0.0039,-0.00712 0.010397,-0.012389 0.018101,-0.014516 0.0077,-0.00211 0.015933,-0.00107 0.022793,0.00316 5.737e-4,2.668e-4 0.060634,0.035717 0.1181713,0.035717 h 2.269e-4 c 0.02297,0 0.091571,-4.002e-4 0.1032996,-0.1321567 0.00102,-0.01142 0.00822,-0.021201 0.018677,-0.025404 0.010397,-0.0042 0.022262,-0.00199 0.030626,0.00561 7.072e-4,6.65e-4 0.075727,0.067981 0.1588893,0.067981 0.1252974,0 0.1877018,-0.1596855 0.2179749,-0.2936572 0.00218,-0.00951 0.00867,-0.01735 0.017482,-0.021111 6.166e-4,-2.667e-4 0.068866,-0.030449 0.0848,-0.089181 0.00969,-0.035762 -0.00187,-0.0770102 -0.0343,-0.1225972 -0.00553,-0.007699 -0.00712,-0.0176149 -0.00438,-0.0266873 0.0069,-0.0231929 0.01943,-0.0909973 -0.00531,-0.12507622 -0.014119,-0.0194745 -0.041161,-0.0264222 -0.080728,-0.0211544 -0.00895,0.001203 -0.01788,-0.00177 -0.024342,-0.008144 -0.00652,-0.006319 -0.00978,-0.0153583 -0.00903,-0.0244754 9.63e-5,-9.3093e-4 0.00756,-0.0999371 -0.04386,-0.15703068 -0.024873,-0.0276611 -0.059307,-0.0410727 -0.1052031,-0.0410727 -0.016155,0 -0.033859,0.001729 -0.052491,0.005226 -0.012568,0.002295 -0.025139,-0.003803 -0.031246,-0.0151814 -0.00146,-0.002614 -0.037399,-0.0664772 -0.1038766,-0.0664772 -0.032,0 -0.067096,0.0147376 -0.1044076,0.0437287 -0.00987,0.007701 -0.023458,0.008268 -0.033902,0.001451 C 2.5404791,0.4791703 2.5353041,0.4663782 2.5380031,0.4539856 2.5382699,0.4525746 2.5679661,0.31027761 2.5059161,0.23689656 2.4973361,0.22835156 2.382788,0.11730801 2.2291213,0.11730801 c -0.1002031,0 -0.1969075,0.0468272 -0.2874613,0.13928285 -0.010493,0.0107155 -0.027086,0.0118216 -0.03886,0.002655 -4.402e-4,-2.6685e-4 -0.05165,-0.0389918 -0.1154267,-0.0389918 -0.053596,0 -0.1016181,0.0274841 -0.1426463,0.0817015 -0.00969,0.0128309 -0.027572,0.0155782 -0.040498,0.00625 -1.733e-4,-1.3343e-4 -0.033593,-0.0231924 -0.079489,-0.0231924 -0.050631,0 -0.097856,0.0275297 -0.1403447,0.0817457 -0.00606,0.007701 -0.015402,0.0119599 -0.025049,0.0112823 -0.00965,-6.6492e-4 -0.01837,-0.006014 -0.02341,-0.0144721 -4.805e-4,-7.9791e-4 -0.052185,-0.0855964 -0.1182598,-0.0855964 -0.038415,0 -0.07732,0.029211 -0.1156038,0.0868795 -0.00629,0.009471 -0.017307,0.0145163 -0.028416,0.0130106 -9e-5,-4.549e-5 -0.014386,-0.001908 -0.036201,-0.001908 -0.049481,0 -0.14069879,0.009513 -0.19513759,0.0730254 -0.040276,0.0470042 -0.054658,0.11719797 -0.042712,0.20872533 0.00163,0.0124299 -0.00448,0.0245639 -0.015227,0.0305826 -0.00127,6.6491e-4 -0.1322009,0.0747095 -0.1555255,0.17955879 -0.00974,0.0437712 5.331e-4,0.0863481 0.031469,0.13020999 0.00951,0.0135362 0.00656,0.0323539 -0.00659,0.0421344 -7.255e-4,5.337e-4 -0.073557,0.055942 -0.080109,0.1257399 -0.003082,0.032928 0.00907,0.063908 0.037133,0.094802 0.00943,0.010439 0.010535,0.026113 0.0026,0.037797 -2.674e-4,4.003e-4 -0.03191,0.049083 -0.019428,0.1089643 0.010013,0.048066 0.04545,0.091705 0.1052916,0.1297676 0.00704,0.00443 0.011905,0.011683 0.013453,0.020006 1.728e-4,9.308e-4 0.0208,0.1048054 0.085508,0.1048054 0.00992,0 0.020891,-0.00231 0.032575,-0.00677 0.00339,-0.00133 0.0069,-0.00195 0.010354,-0.00195 z m 0,0"
     fill-opacity="1"
     fill-rule="nonzero"
     id="path11"
     style="stroke-width:0.0113303" /><path
     fill="#215923"
     d="m 1.6982068,3.1848128 c 0.044214,0 0.044214,-0.070018 0,-0.070018 -0.044214,0 -0.044214,0.070018 0,0.070018 z m 0,0"
     fill-opacity="1"
     fill-rule="nonzero"
     id="path12"
     style="stroke-width:0.0113303" /><path
     fill="#215923"
     d="m 1.8956455,2.6807929 c 0.044214,0 0.044214,-0.070017 0,-0.070017 -0.044214,0 -0.044214,0.070017 0,0.070017 z m 0,0"
     fill-opacity="1"
     fill-rule="nonzero"
     id="path13"
     style="stroke-width:0.0113303" /><path
     fill="#215923"
     d="m 2.1523467,2.0355869 c 0.044214,0 0.044214,-0.070017 0,-0.070017 -0.044214,0 -0.044214,0.070017 0,0.070017 z m 0,0"
     fill-opacity="1"
     fill-rule="nonzero"
     id="path14"
     style="stroke-width:0.0113303" /><path
     fill="#215923"
     d="m 1.4217661,2.7412062 c 0.044212,0 0.044212,-0.070018 0,-0.070018 -0.044218,0 -0.044218,0.070018 0,0.070018 z m 0,0"
     fill-opacity="1"
     fill-rule="nonzero"
     id="path15"
     style="stroke-width:0.0113303" /><path
     fill="#215923"
     d="m 2.3498295,3.1747209 c 0.044214,0 0.044214,-0.070017 0,-0.070017 -0.044214,0 -0.044214,0.070017 0,0.070017 z m 0,0"
     fill-opacity="1"
     fill-rule="nonzero"
     id="path16"
     style="stroke-width:0.0113303" /><path
     fill="#215923"
     d="m 2.2095293,2.3756276 c 0.00424,-0.013675 0.00513,-0.02806 -0.00302,-0.040809 -0.00778,-0.012222 -0.019829,-0.020184 -0.034433,-0.020184 -0.014562,0 -0.026644,0.00797 -0.034433,0.020184 -0.00815,0.012748 -0.00718,0.027087 -0.00298,0.040809 0.00523,0.016907 0.019695,0.029076 0.037399,0.029076 0.017747,0 0.032221,-0.012167 0.037444,-0.029076 z m 0,0"
     fill-opacity="1"
     fill-rule="nonzero"
     id="path17"
     style="stroke-width:0.0113303" /><path
     fill="#215923"
     d="m 1.7525124,2.3786371 c 0.0035,0.00314 0.00694,0.00632 0.010439,0.00947 0.00974,0.00885 0.020669,0.014386 0.033991,0.014386 0.012707,0 0.025007,-0.0052 0.033947,-0.014386 0.00899,-0.00917 0.014119,-0.021731 0.014119,-0.034654 0,-0.013633 -0.00545,-0.024784 -0.014119,-0.034698 -0.00306,-0.00357 -0.0062,-0.00712 -0.00925,-0.010716 -0.017747,-0.020316 -0.051119,-0.01837 -0.069132,0 -0.018013,0.018413 -0.019917,0.052493 0,0.070593 z m 0,0"
     fill-opacity="1"
     fill-rule="nonzero"
     id="path18"
     style="stroke-width:0.0113303" /><path
     fill="#215923"
     d="m 1.9450383,3.0538508 c 0.044214,0 0.044214,-0.070018 0,-0.070018 -0.044214,0 -0.044214,0.070018 0,0.070018 z m 0,0"
     fill-opacity="1"
     fill-rule="nonzero"
     id="path19"
     style="stroke-width:0.0113303" /><path
     fill="#215923"
     d="m 2.2037313,2.8334411 c -0.00346,-0.00951 -0.00858,-0.022396 -0.018455,-0.026911 -0.00921,-0.00423 -0.016199,-0.00556 -0.025936,-0.00326 -0.00718,0.00158 -0.013495,0.00695 -0.018677,0.01196 -0.011601,0.011158 -0.012125,0.032974 0,0.044036 0.012485,0.011421 0.025538,0.015094 0.042002,0.012167 0.00735,-0.00133 0.015624,-0.00695 0.020891,-0.012167 -0.00722,0.00308 -0.014384,0.00611 -0.021598,0.00917 h 0.00987 c 0.013592,0 0.025847,-0.00957 0.029432,-0.022879 0.00424,-0.01571 -0.00504,-0.034746 -0.021288,-0.03833 0.00659,0.00145 0.00429,0.00224 0.00155,0.00109 -0.00318,-0.0014 -0.00659,-0.00308 -0.010056,-0.00418 0.00788,0.00801 0.015711,0.016025 0.023545,0.024034 -0.00323,-0.011946 -0.00974,-0.018412 -0.019121,-0.025581 0.00266,0.00206 0.00531,0.00423 0.00797,0.00629 -4.404e-4,-4.002e-4 -9.37e-4,-7.858e-4 -0.00141,-0.0012 -0.00535,-0.00545 -0.011683,-0.00921 -0.018944,-0.011282 -0.012209,-0.00344 -0.021952,-4.001e-4 -0.033106,0.00441 -0.00424,0.00188 -0.00801,0.00605 -0.011642,0.00921 -0.00726,0.00638 -0.010716,0.015227 -0.013812,0.024076 -0.00575,0.01646 9.309e-4,0.036734 0.012568,0.048594 0.01611,0.016465 0.039567,0.018189 0.059218,0.00778 8.403e-4,-4.002e-4 0.00168,-9.066e-4 0.00247,-0.0014 -0.0084,0.00229 -0.016775,0.00466 -0.025184,0.00695 0.023413,7.859e-4 0.042975,-0.015444 0.052579,-0.036201 -0.010716,0.00847 -0.021466,0.016865 -0.032177,0.025273 0.015181,-0.00537 0.027972,-0.013411 0.036248,-0.027794 0.00336,-0.00592 0.00469,-0.011117 0.00673,-0.016949 -0.00191,0.00471 -0.0039,0.00938 -0.00579,0.014073 4.5e-5,-4.53e-5 4.5e-5,-9.08e-5 8.99e-5,-1.335e-4 -0.0069,0.00704 -0.013812,0.014072 -0.020714,0.021157 0,0 0,0 4.5e-5,0 -0.028946,-0.016999 -0.057935,-0.033948 -0.086879,-0.050898 8.99e-5,9.067e-4 -1.317e-4,0.00181 -2.669e-4,0.00272 -0.00173,0.014695 0.00726,0.031953 0.01704,0.041915 0.01084,0.011117 0.02567,0.017348 0.041026,0.017348 0.015314,0 0.030229,-0.00629 0.041029,-0.017348 0.00974,-0.00997 0.018721,-0.027219 0.016995,-0.041915 -7.072e-4,-0.00611 -6.164e-4,-0.012526 -0.00243,-0.018412 -0.00611,-0.019784 -0.02036,-0.035537 -0.04032,-0.041159 -0.010216,-0.00278 -0.020448,-0.00278 -0.030671,0 -0.00978,0.00284 -0.018278,0.00788 -0.025493,0.015178 -0.012568,0.010216 -0.015801,0.02757 -0.01704,0.042712 -0.00141,0.017923 0.00686,0.032666 0.017969,0.045451 -0.00461,-0.01788 -0.00925,-0.035719 -0.013899,-0.053551 -4.003e-4,0.00278 -9.368e-4,0.0055 -0.00173,0.00819 -0.00318,0.010716 -0.00424,0.02222 -4.403e-4,0.033016 v -0.027087 c -1.734e-4,4.002e-4 -3.068e-4,9.067e-4 -4.936e-4,0.00133 0.00167,-0.00405 0.00332,-0.00806 0.005,-0.012084 -2.267e-4,5.338e-4 -4.003e-4,9.067e-4 -5.737e-4,0.0014 0.029786,0.004 0.059528,0.00792 0.089358,0.011905 -0.00292,-0.00826 -0.00646,-0.017615 -0.013273,-0.023594 -0.00381,-0.00332 -0.00797,-0.00787 -0.012208,-0.00974 0.00659,0.016509 0.013191,0.033016 0.019739,0.049525 1.734e-4,-7.856e-4 3.601e-4,-0.00158 4.936e-4,-0.00229 -0.00601,0.00801 -0.012043,0.016025 -0.018101,0.024034 0.00938,-0.00717 0.01589,-0.013633 0.019119,-0.025582 -0.00784,0.00801 -0.015668,0.016025 -0.023502,0.023986 0.00341,-0.00109 0.00681,-0.00272 0.010056,-0.00418 0.0027,-0.00121 0.005,-4.002e-4 -0.00159,0.00109 0.013149,-0.0029 0.022396,-0.016775 0.022396,-0.030006 0,-0.016999 -0.013853,-0.031203 -0.030494,-0.031203 -0.00593,0 -0.012264,-5.338e-4 -0.017969,0.0012 -0.0054,0.0015 -0.00955,0.00418 -0.013536,0.0081 -0.00318,0.00308 0.0073,-0.00537 0.00332,-0.00272 -0.00412,0.00272 0.00792,-0.00272 0.00274,-0.00121 0.00611,-0.00168 0.012665,-4.001e-4 0.017394,0.00387 v 0.044036 c 5.336e-4,-5.338e-4 0.00107,-0.00109 0.00155,-0.0015 -0.00434,0.00435 -0.00969,0.00652 -0.016155,0.00652 -0.00518,-0.0014 -0.010312,-0.00285 -0.015447,-0.00423 -0.00306,-0.00321 -0.00615,-0.00638 -0.00925,-0.00955 -0.00138,-0.00526 -0.00279,-0.010493 -0.00416,-0.01576 2.669e-4,0.00308 5.737e-4,0.00133 0.00102,-0.00526 -1.735e-4,0.0014 -6.166e-4,0.00272 -9.733e-4,0.00405 -0.00579,0.021023 0.010397,0.042447 0.031645,0.042447 0.020006,0 0.039257,-0.021688 0.031733,-0.042447 z m 0,0"
     fill-opacity="1"
     fill-rule="nonzero"
     id="path20"
     style="stroke-width:0.0113303" /><path
     fill="#215923"
     d="m 1.3396659,2.9736534 c -0.012222,0.00568 -0.023061,0.0208 -0.025758,0.033905 -0.00272,0.013191 -0.0015,0.021423 7.253e-4,0.034746 0.00242,0.00863 0.00663,0.016068 0.01279,0.022396 0.00925,0.00947 0.022039,0.01487 0.035143,0.01487 0.00895,-4.41e-5 0.017307,-0.00237 0.025097,-0.0069 0.010173,-0.00611 0.020716,-0.017971 0.022795,-0.030363 4.001e-4,-0.00224 6.649e-4,-0.00441 0.0014,-0.00656 -0.00168,0.00411 -0.00339,0.00826 -0.00508,0.012389 1.317e-4,-4.003e-4 3.065e-4,-6.65e-4 4.933e-4,-0.00109 -0.00266,0.00351 -0.00532,0.00698 -0.00797,0.010536 1.733e-4,-2.666e-4 4e-4,-5.337e-4 6.648e-4,-6.65e-4 -0.00344,0.00272 -0.00686,0.00544 -0.010354,0.00819 1.734e-4,-9.06e-5 2.666e-4,-1.324e-4 4.002e-4,-2.666e-4 -0.00405,0.00168 -0.00815,0.00351 -0.012222,0.00526 3.07e-4,-1.329e-4 6.649e-4,-2.666e-4 9.671e-4,-2.666e-4 -0.00453,6.651e-4 -0.00911,0.00133 -0.013674,0.00194 2.267e-4,0 4.001e-4,-4.42e-5 5.737e-4,-4.42e-5 0.014162,-0.0014 0.026114,-0.00489 0.036469,-0.015444 0.012969,-0.013232 0.018104,-0.033059 0.013232,-0.051163 -0.00357,-0.013135 -0.012167,-0.024565 -0.023678,-0.031469 -0.00801,-0.00471 -0.016731,-0.00712 -0.026023,-0.00717 -0.00929,0 -0.017972,0.00242 -0.025979,0.00717 z m 0,0"
     fill-opacity="1"
     fill-rule="nonzero"
     id="path21"
     style="stroke-width:0.0113303" /><path
     fill="#215923"
     d="m 2.3991783,1.6932901 c 0.00663,0 0.00663,-0.010482 0,-0.010482 -0.00659,0 -0.00659,0.010482 0,0.010482 z m 0,0"
     fill-opacity="1"
     fill-rule="nonzero"
     id="path22"
     style="stroke-width:0.0113303" /><path
     fill="#215923"
     d="m 2.3794387,1.7734417 c 0.044214,0 0.044214,-0.070017 0,-0.070017 -0.044214,0 -0.044214,0.070017 0,0.070017 z m 0,0"
     fill-opacity="1"
     fill-rule="nonzero"
     id="path23"
     style="stroke-width:0.0113303" /></svg>
