<svg xmlns="http://www.w3.org/2000/svg" xmlns:xlink="http://www.w3.org/1999/xlink" width="800" zoomAndPan="magnify" viewBox="0 0 600 599.999999" height="800" preserveAspectRatio="xMidYMid meet" version="1.0"><defs><clipPath id="233749207d"><path d="M 19 94 L 581 94 L 581 508.707031 L 19 508.707031 Z M 19 94 " clip-rule="nonzero"/></clipPath></defs><rect x="-60" width="720" fill="#ffffff" y="-60" height="719.999999" fill-opacity="1"/><rect x="-60" width="720" fill="#ffffff" y="-60" height="719.999999" fill-opacity="1"/><g clip-path="url(#233749207d)"><path fill="#398d3c" d="M 189.988281 99.503906 C 158.546875 106.214844 123.136719 120.558594 103.902344 134.898438 C 91.996094 143.445312 86.808594 150.765625 75.816406 173.652344 C 46.816406 233.769531 24.839844 321.039062 20.257812 394.277344 C 18.121094 426.011719 18.121094 426.316406 26.976562 438.828125 C 45.292969 465.683594 91.386719 491.621094 139.621094 502.605469 C 155.1875 506.265625 171.0625 508.707031 175.03125 508.097656 C 179.914062 507.488281 187.851562 500.164062 198.535156 485.820312 C 208 473.003906 216.546875 464.460938 219.90625 464.765625 C 222.652344 465.070312 235.777344 466.597656 248.90625 468.734375 C 279.433594 473.003906 320.339844 473.003906 350.867188 468.734375 C 363.992188 466.597656 377.117188 465.070312 379.867188 464.765625 C 383.222656 464.460938 391.773438 473.003906 401.234375 485.820312 C 411.917969 500.164062 419.855469 507.488281 424.742188 508.097656 C 428.710938 508.707031 444.582031 506.265625 460.152344 502.605469 C 508.382812 491.621094 554.480469 465.683594 572.796875 438.828125 C 581.648438 426.316406 581.648438 426.011719 579.511719 394.886719 C 574.933594 321.039062 552.953125 234.378906 523.953125 173.652344 C 512.964844 150.765625 507.773438 143.445312 495.867188 134.898438 C 475.414062 119.945312 440.613281 106.214844 404.289062 98.585938 C 369.183594 91.566406 364.90625 92.484375 359.414062 108.960938 L 355.75 119.335938 L 243.714844 119.335938 L 241.578125 111.097656 C 236.390625 91.875 231.503906 90.957031 189.988281 99.503906 Z M 438.785156 133.375 C 471.753906 144.359375 487.625 156.566406 499.53125 178.839844 C 526.089844 229.496094 550.207031 323.480469 555.089844 394.277344 L 557.226562 421.742188 L 541.355469 436.386719 C 522.730469 453.78125 490.984375 469.648438 457.097656 478.191406 L 432.679688 484.601562 L 422.910156 473.003906 C 417.414062 466.597656 412.835938 459.882812 412.835938 458.054688 C 412.835938 456.527344 423.519531 450.425781 436.644531 445.238281 C 464.121094 433.640625 489.152344 416.246094 489.152344 408.617188 C 489.152344 402.210938 483.65625 395.800781 477.859375 395.800781 C 475.722656 395.800781 466.5625 400.683594 457.710938 406.484375 C 437.5625 419.910156 410.394531 430.894531 376.8125 439.132812 C 338.65625 448.59375 261.117188 448.59375 222.957031 439.132812 C 189.378906 430.894531 162.210938 419.910156 142.0625 406.484375 C 133.207031 400.683594 124.050781 395.800781 121.914062 395.800781 C 116.113281 395.800781 110.617188 402.210938 110.617188 408.617188 C 110.617188 416.246094 135.652344 433.640625 163.429688 445.238281 C 176.25 450.425781 186.9375 456.527344 186.9375 458.054688 C 186.9375 459.882812 182.355469 466.597656 176.863281 473.003906 L 167.09375 484.601562 L 142.671875 478.191406 C 108.789062 469.648438 77.039062 453.78125 58.417969 436.386719 L 42.847656 421.742188 L 44.679688 394.277344 C 49.871094 321.957031 74.902344 226.140625 101.765625 176.09375 C 108.789062 162.972656 114.585938 156.566406 126.796875 149.242188 C 146.335938 137.339844 182.664062 124.828125 204.335938 122.082031 C 227.84375 119.335938 224.789062 125.441406 198.535156 133.375 C 186.324219 137.035156 165.871094 145.273438 152.746094 151.988281 C 132.902344 162.058594 128.933594 165.109375 128.933594 171.515625 C 128.933594 185.554688 138.703125 186.46875 161.597656 175.179688 C 206.167969 152.902344 244.9375 144.359375 299.886719 144.359375 C 355.445312 144.359375 385.667969 150.765625 434.816406 173.652344 C 457.097656 184.027344 462.289062 185.554688 466.257812 182.199219 C 468.699219 180.0625 470.835938 175.179688 470.835938 171.210938 C 470.835938 165.109375 466.5625 161.753906 447.027344 151.988281 C 433.898438 145.273438 413.445312 137.035156 401.234375 133.375 C 380.476562 126.964844 376.8125 124.523438 381.085938 120.558594 C 383.222656 118.421875 414.363281 125.441406 438.785156 133.375 Z M 438.785156 133.375 " fill-opacity="1" fill-rule="nonzero"/></g><path fill="#398d3c" d="M 200.671875 268.859375 C 160.988281 286.558594 153.96875 343.621094 187.851562 373.527344 C 214.714844 397.023438 253.789062 386.34375 269.664062 351.554688 C 291.339844 303.953125 245.546875 249.027344 200.671875 268.859375 Z M 235.167969 293.882812 C 251.652344 305.171875 255.621094 330.195312 244.023438 347.285156 C 230.894531 366.8125 210.136719 366.8125 197.011719 347.285156 C 181.441406 324.09375 195.789062 289 220.515625 289 C 224.789062 289 231.503906 291.136719 235.167969 293.882812 Z M 235.167969 293.882812 " fill-opacity="1" fill-rule="nonzero"/><path fill="#398d3c" d="M 359.414062 268.859375 C 319.726562 286.558594 312.707031 343.621094 346.59375 373.527344 C 373.457031 397.023438 412.53125 386.34375 428.402344 351.554688 C 450.078125 303.953125 404.289062 249.027344 359.414062 268.859375 Z M 393.910156 293.882812 C 410.394531 305.171875 414.363281 330.195312 402.761719 347.285156 C 389.636719 366.8125 368.875 366.8125 355.75 347.285156 C 340.179688 324.09375 354.527344 289 379.253906 289 C 383.53125 289 390.246094 291.136719 393.910156 293.882812 Z M 393.910156 293.882812 " fill-opacity="1" fill-rule="nonzero"/></svg>